<svg width="1000" height="800" viewBox="0 0 1000 800" fill="none" xmlns="http://www.w3.org/2000/svg">
  <rect width="1000" height="800" rx="40" fill="#F8F5FF"/>
  <rect x="80" y="120" width="260" height="520" rx="40" fill="#E9D5FF"/>
  <rect x="320" y="200" width="220" height="420" rx="40" fill="#C4B5FD"/>
  <rect x="580" y="140" width="300" height="460" rx="40" fill="#A78BFA"/>
  <path d="M140 600C190 560 230 520 260 460C290 400 310 340 330 300" stroke="#7C3AED" stroke-width="24" stroke-linecap="round"/>
  <circle cx="600" cy="260" r="52" fill="#FFFFFF" stroke="#7C3AED" stroke-width="18"/>
  <circle cx="660" cy="320" r="24" fill="#7C3AED"/>
  <circle cx="730" cy="420" r="18" fill="#FFFFFF"/>
  <path d="M180 220C220 180 286 170 330 190C396 220 412 298 442 360C480 430 548 456 612 430" stroke="#6D28D9" stroke-width="18" stroke-linecap="round"/>
  <g opacity="0.95">
    <path d="M740 520C780 480 840 470 880 510" stroke="#FFFFFF" stroke-width="20" stroke-linecap="round"/>
    <rect x="760" y="560" width="120" height="140" rx="24" fill="#FFFFFF" fill-opacity="0.9"/>
    <path d="M788 600H860" stroke="#7C3AED" stroke-width="16" stroke-linecap="round"/>
    <path d="M788 648H860" stroke="#7C3AED" stroke-width="16" stroke-linecap="round"/>
  </g>
  <text x="150" y="680" fill="#5B21B6" font-family="Inter, sans-serif" font-size="36" font-weight="700">Tigray Resource</text>
  <text x="150" y="730" fill="#7C3AED" font-family="Inter, sans-serif" font-size="22" font-weight="600">Archive + Research + Connection</text>
</svg>
